<svg xmlns="http://www.w3.org/2000/svg" width="144" height="144" viewBox="0 0 144 144"><title>blankUser</title><path d="M31.2,144.24H.24V.24h144v144H112.08a10.52,10.52,0,0,0-.27-1.38c-.86-2.49-1.82-5-2.61-7.47-1.42-4.49-3.22-8.91-2.88-13.76.17-2.54.52-5.08.56-7.62a34.44,34.44,0,0,0-.37-7.26,8.84,8.84,0,0,0-6.44-7.29c-5-1.56-9.83-3.59-14.71-5.48a19,19,0,0,1-3.26-1.75,3.54,3.54,0,0,1-1.26-1.4,11.79,11.79,0,0,1-1.14-6.89c.57-3.28.63-3.27,3.7-4,.55-.13,1.11-.18,1.65-.31,4.52-1.1,4.77-1.34,5.34-6a6.24,6.24,0,0,0-.07-1.43c-.2-1.83-.43-3.65-.62-5.48-.32-3.06-.43-6.15-1-9.17a11.23,11.23,0,0,0-6-8.36,4.2,4.2,0,0,1-2.51-2.94,3.25,3.25,0,0,0-.76-1.83,15.82,15.82,0,0,0-3.74-2.28c-3.94-1.56-8-2.07-12-.3-.65.28-1.38.4-2.05.66-3.19,1.27-6,3-7.59,6.25-.69,1.43-1.22,2.95-1.81,4.43-3.48,8.8,1.06,18.5,7.88,23.49a5.13,5.13,0,0,1,2.35,3.71,29.89,29.89,0,0,1-.6,9.76,3.54,3.54,0,0,1-2.46,2.71c-.38.13-.75.28-1.12.44-5,2.07-9.94,4.42-15.07,6.15-3.86,1.3-5.67,3.89-6.56,7.51-.93,3.78-.19,7.55.12,11.33a26.73,26.73,0,0,1,0,7.26c-.7,3.55-2,7-3,10.46C32.9,138.75,32,141.49,31.2,144.24Zm59-111a20.52,20.52,0,0,1,.93-2.81,31.32,31.32,0,0,1,2.54-4.39,2.58,2.58,0,0,1,3-.82,4.69,4.69,0,0,1,2.93,2.48c2.18,4.77,1.47,7.92-1.95,12a1.93,1.93,0,0,0-.56,2c.5,1.56,1,3.13,1.51,4.68a4.31,4.31,0,0,0,.7,1c2.45-2.5.12-4.69-.27-7l1.32-.91a7,7,0,0,0,3.25-5.08,11.31,11.31,0,0,0-3.9-10.21,5.27,5.27,0,0,0-7.65.35,25.67,25.67,0,0,0-2.61,3.84C88.4,30,88.8,31.51,90.15,33.27ZM51.49,29.65c.88,2,1.1,4.11,2.3,5.79l.58-.19-1-4.56c.76.14,1.36.27,2,.36a3.47,3.47,0,0,0,4.32-2.77c1.16-4.15-2.94-9-7.24-8.52a5.79,5.79,0,0,0-1.7.53,2.13,2.13,0,0,0-1.16,2.37,12.58,12.58,0,0,0,1.67-.55,3,3,0,0,1,3.56.41A8.62,8.62,0,0,1,57,25.14c1,2.05.5,3.73-2,4.11C53.9,29.41,52.83,29.5,51.49,29.65ZM25.89,54.57c1.3-3.71,2.23-4.74,4.15-4.67,1.52.06,3.6,2.19,4,4.3.5,2.42-1.15,3.42-3,4.11,0,2,2.63,5.72,4,5.47l-1.7-4c.22-.17.34-.28.47-.37a4.35,4.35,0,0,1,.52-.29c1.82-.94,2.08-1.52,1.8-3.54a9.53,9.53,0,0,0-3.88-6.49c-1.45-1.11-3-1.79-4.76-.93a5.13,5.13,0,0,0-2.78,4.47A1.84,1.84,0,0,0,25.89,54.57Zm76.71-4.08a5.42,5.42,0,0,0-2-.17,1.62,1.62,0,0,0-.82,1.27,5.34,5.34,0,0,0,2,4.23ZM54.05,37.68l1.9,3,.36-.15V37.18ZM37.53,66.54c-.91-.4-1.38-.18-1.51.57s.66,1.62,1.73,1.77Z" transform="translate(-0.24 -0.24)" fill="#956699"/><path d="M31.2,144.24c.84-2.75,1.7-5.49,2.53-8.25,1.05-3.47,2.34-6.91,3-10.46a26.73,26.73,0,0,0,0-7.26c-.31-3.78-1-7.55-.12-11.33.89-3.62,2.7-6.21,6.56-7.51,5.13-1.73,10.06-4.08,15.07-6.15.37-.16.74-.31,1.12-.44a3.54,3.54,0,0,0,2.46-2.71,29.89,29.89,0,0,0,.6-9.76,5.13,5.13,0,0,0-2.35-3.71c-6.82-5-11.36-14.69-7.88-23.49.59-1.48,1.12-3,1.81-4.43,1.56-3.23,4.4-5,7.59-6.25.67-.26,1.4-.38,2.05-.66,4-1.77,8.07-1.26,12,.3a15.82,15.82,0,0,1,3.74,2.28,3.25,3.25,0,0,1,.76,1.83,4.2,4.2,0,0,0,2.51,2.94,11.23,11.23,0,0,1,6,8.36c.55,3,.66,6.11,1,9.17.19,1.83.42,3.65.62,5.48a6.24,6.24,0,0,1,.07,1.43c-.57,4.68-.82,4.92-5.34,6-.54.13-1.1.18-1.65.31-3.07.72-3.13.71-3.7,4a11.79,11.79,0,0,0,1.14,6.89,3.54,3.54,0,0,0,1.26,1.4A19,19,0,0,0,85.36,94c4.88,1.89,9.73,3.92,14.71,5.48a8.84,8.84,0,0,1,6.44,7.29,34.44,34.44,0,0,1,.37,7.26c0,2.54-.39,5.08-.56,7.62-.34,4.85,1.46,9.27,2.88,13.76.79,2.52,1.75,5,2.61,7.47a10.52,10.52,0,0,1,.27,1.38H99.6a12.34,12.34,0,0,0-.42-1.47q-1.89-4.32-3.83-8.63c-.25-.57-.54-1.11-.82-1.67h-.35c-.19.83-.41,1.65-.57,2.49q-.85,4.64-1.69,9.28H51.36c-.09-.38-.21-.76-.28-1.15-.57-3.14-1.12-6.27-1.69-9.4-.08-.41-.23-.8-.35-1.2h-.29l-5.07,11.76Zm48-74.37.53-.44,5.83-2.77L85,65.79c-2.53.31-4.8.82-5.69,3.58l-.15.45v.06Z" transform="translate(-0.24 -0.24)" fill="#3c3c3c"/><path d="M91.92,144.24q.84-4.65,1.69-9.28c.16-.84.38-1.66.57-2.49h.35c.28.56.57,1.1.82,1.67q1.94,4.31,3.83,8.63a12.34,12.34,0,0,1,.42,1.47Z" transform="translate(-0.24 -0.24)" fill="#926496"/><path d="M43.68,144.24l5.07-11.76H49c.12.4.27.79.35,1.2.57,3.13,1.12,6.26,1.69,9.4.07.39.19.77.28,1.15Z" transform="translate(-0.24 -0.24)" fill="#926496"/><path d="M90.15,33.27c-1.35-1.76-1.75-3.25-.71-4.86a25.67,25.67,0,0,1,2.61-3.84,5.27,5.27,0,0,1,7.65-.35,11.31,11.31,0,0,1,3.9,10.21,7,7,0,0,1-3.25,5.08L99,40.42c.39,2.31,2.72,4.5.27,7a4.31,4.31,0,0,1-.7-1c-.54-1.55-1-3.12-1.51-4.68a1.93,1.93,0,0,1,.56-2c3.42-4.09,4.13-7.24,1.95-12a4.69,4.69,0,0,0-2.93-2.48,2.58,2.58,0,0,0-3,.82,31.32,31.32,0,0,0-2.54,4.39A20.52,20.52,0,0,0,90.15,33.27Z" transform="translate(-0.24 -0.24)" fill="#403e40"/><path d="M51.49,29.65c1.34-.15,2.41-.24,3.47-.4,2.54-.38,3-2.06,2-4.11a8.62,8.62,0,0,0-2.22-2.62,3,3,0,0,0-3.56-.41,12.58,12.58,0,0,1-1.67.55,2.13,2.13,0,0,1,1.16-2.37,5.79,5.79,0,0,1,1.7-.53c4.3-.48,8.4,4.37,7.24,8.52a3.47,3.47,0,0,1-4.32,2.77c-.62-.09-1.22-.22-2-.36l1,4.56-.58.19C52.59,33.76,52.37,31.67,51.49,29.65Z" transform="translate(-0.24 -0.24)" fill="#403e41"/><path d="M25.89,54.57a1.84,1.84,0,0,1-1.17-2,5.13,5.13,0,0,1,2.78-4.47c1.77-.86,3.31-.18,4.76.93a9.53,9.53,0,0,1,3.88,6.49c.28,2,0,2.6-1.8,3.54a4.35,4.35,0,0,0-.52.29c-.13.09-.25.2-.47.37l1.7,4c-1.36.25-4-3.45-4-5.47,1.87-.69,3.52-1.69,3-4.11-.44-2.11-2.52-4.24-4-4.3C28.12,49.83,27.19,50.86,25.89,54.57Z" transform="translate(-0.24 -0.24)" fill="#413e41"/><path d="M102.6,50.49l-.82,5.33a5.34,5.34,0,0,1-2-4.23,1.62,1.62,0,0,1,.82-1.27A5.42,5.42,0,0,1,102.6,50.49Z" transform="translate(-0.24 -0.24)" fill="#413f41"/><path d="M54.05,37.68l2.26-.5v3.34l-.36.15Z" transform="translate(-0.24 -0.24)" fill="#454045"/><path d="M37.53,66.54l.22,2.34c-1.07-.15-1.88-1-1.73-1.77S36.62,66.14,37.53,66.54Z" transform="translate(-0.24 -0.24)" fill="#464146"/><path d="M79.32,69.37c.89-2.76,3.16-3.27,5.69-3.58l.57.87-5.83,2.77Z" transform="translate(-0.24 -0.24)" fill="#8a608e"/><path d="M79.32,69.37l.43.06-.53.44,0-.05Z" transform="translate(-0.24 -0.24)" fill="#6f5371"/><polygon points="78.98 69.63 78.92 69.64 78.93 69.58 78.98 69.63" fill="#6f5371"/></svg>