<svg id="Icon_settings_alt_Image" data-name="Icon_settings_alt Image" xmlns="http://www.w3.org/2000/svg" viewBox="0 0 75.12 75.12"><defs><style>.cls-1{fill:#3d3d3d;}</style></defs><title>Icon_settings_alt</title><path class="cls-1" d="M76.32,38.5A37.56,37.56,0,1,1,38.74,1,37.57,37.57,0,0,1,76.32,38.5ZM18.1,43.71l2.52,6c-.74.68-1.55,1.4-2.31,2.16-1.16,1.15-1.17,1.81-.06,2.94q2.19,2.23,4.41,4.42c1.05,1,1.76,1,2.77,0,.81-.82,1.53-1.73,2.16-2.47l6.17,2.49c0,1.22,0,2.42,0,3.61s.55,1.66,1.71,1.67q3.36,0,6.72,0c1.21,0,1.74-.54,1.77-1.76s0-2.38,0-3.53l6-2.43c.7.74,1.49,1.63,2.33,2.47a1.59,1.59,0,0,0,2.6.06c1.57-1.53,3.13-3.09,4.66-4.67,1-1,1-1.67,0-2.67-.85-.82-1.81-1.54-2.52-2.13l2.56-6.07,4.93-.29V33.63l-4.94-.29-2.51-6c.71-.63,1.55-1.31,2.32-2.06,1.23-1.22,1.23-1.8,0-3Q57.27,20.12,55.08,18c-1.06-1-1.83-1.08-2.86,0-.79.83-1.47,1.77-2,2.45L44,17.83c0-1.11,0-2.27,0-3.43,0-1.32-.58-1.89-1.9-1.9q-3.18,0-6.36,0c-1.42,0-1.93.52-2,2,0,1.15,0,2.29,0,3.36L27.6,20.39c-.68-.77-1.46-1.73-2.32-2.62a1.55,1.55,0,0,0-2.43,0Q20.4,20.13,18,22.59a1.51,1.51,0,0,0,.14,2.48c.87.81,1.77,1.59,2.51,2.25l-2.49,6.12c-1.08,0-2.24,0-3.39,0-1.37,0-1.82.46-1.83,1.79q0,3.36,0,6.71c0,1.27.45,1.72,1.74,1.75S17,43.71,18.1,43.71Z" transform="translate(-1.2 -0.96)"/><path class="cls-1" d="M48.72,38.56a9.84,9.84,0,1,1-19.67-.09,9.84,9.84,0,0,1,19.67.09Z" transform="translate(-1.2 -0.96)"/></svg>