<svg id="Icon_search_Image" data-name="Icon_search Image" xmlns="http://www.w3.org/2000/svg" viewBox="0 0 62.89 69.39"><defs><style>.cls-1{fill:#3d3d3d;}</style></defs><title>Icon_search</title><path class="cls-1" d="M42.77,46.78a23.87,23.87,0,0,1-32.1-8.1,23.44,23.44,0,0,1,5.61-30.8A23.61,23.61,0,0,1,47.4,43.3a7.42,7.42,0,0,0,.49.62l21.2,23.37c1.37,1.51,1.35,2.11-.17,3.46-2.32,2.07-2.47,2.07-4.58-.25L43.62,47.67C43.36,47.38,43.08,47.1,42.77,46.78ZM30.84,45.12A18.72,18.72,0,1,0,12,26.4,18.81,18.81,0,0,0,30.84,45.12Z" transform="translate(-7.2 -2.89)"/></svg>