<svg id="Icon_billing_alt_Image" data-name="Icon_billing_alt Image" xmlns="http://www.w3.org/2000/svg" viewBox="0 0 75.12 75.12"><defs><style>.cls-1{fill:#3d3d3d;}</style></defs><title>Icon_billing_alt</title><path class="cls-1" d="M1.2,38.46A37.56,37.56,0,1,1,38.46,76.08,37.57,37.57,0,0,1,1.2,38.46ZM31.92,18.68c-1.28.59-2.45,1-3.51,1.64a21.4,21.4,0,0,0-3.11,2.22c-4.94,4.36-5.2,11-.61,15.69a17.5,17.5,0,0,0,12.59,5.28,24.9,24.9,0,0,1,3.34.25c.83.15,1.61.54,1.69,1.59s-.65,1.46-1.46,1.79A6.8,6.8,0,0,1,36,47a4.35,4.35,0,0,0-2.74-.19c-3,1.26-5.95,2.72-8.9,4.15-1.19.58-1.45,1.49-.51,2.38a36.14,36.14,0,0,0,4.62,3.74,21,21,0,0,0,3.5,1.57c0,1.31,0,2.59,0,3.87,0,1.08.41,1.61,1.56,1.6q5,0,10.08,0c1.14,0,1.59-.49,1.57-1.58,0-1.31,0-2.63,0-4,.45-.18.82-.33,1.18-.46A16.22,16.22,0,0,0,53,53.74a9.63,9.63,0,0,0-.78-14.19c-3.74-3.24-8.29-4.5-13.11-5a13.65,13.65,0,0,1-3.24-.69,1.76,1.76,0,0,1-1-1.31,2,2,0,0,1,.95-1.46,5.53,5.53,0,0,1,5.81.16,2.55,2.55,0,0,0,2.56.27c3.1-1.17,6.22-2.28,9.33-3.43.4-.15.76-.38,1.33-.67a9.89,9.89,0,0,0-.52-1.81,12.27,12.27,0,0,0-5.22-5.14c-1.26-.67-2.59-1.21-3.87-1.79-.44-1.8.44-3.75-.63-5.54-3.92,0-7.75,0-11.58,0-.87,0-1.09.68-1.09,1.43Z" transform="translate(-1.2 -0.96)"/></svg>