<svg xmlns="http://www.w3.org/2000/svg" width="30.05" height="30.05" viewBox="0 0 30.05 30.05"><defs><style>.a{fill:#3d3d3d;}</style></defs><title>Icon_account</title><path class="a" d="M53.62,38.46a15,15,0,1,1-15-15A15,15,0,0,1,53.62,38.46Zm-5.33,6.17a8.88,8.88,0,0,0-3.2-3.82,11.24,11.24,0,0,0-7.73-2c-3.36.33-7.18,2.44-8.55,5.88,2.42,3.42,5.88,4.8,10,4.74A11.08,11.08,0,0,0,48.29,44.63ZM43.17,32.38a4.63,4.63,0,1,0-4.63,4.81A4.68,4.68,0,0,0,43.17,32.38Z" transform="translate(-23.57 -23.42)"/></svg>