<svg xmlns="http://www.w3.org/2000/svg" width="30.05" height="30.05" viewBox="0 0 30.05 30.05"><defs><style>.a{fill:#3d3d3d;}</style></defs><title>Icon_cart</title><path class="a" d="M53.62,38.43a15,15,0,1,1-15-15A15,15,0,0,1,53.62,38.43ZM46.21,48c0-.17,0-.29,0-.42-.17-3.56-.33-7.12-.5-10.68,0-.91,0-1.83-.15-2.73a7.21,7.21,0,0,0-14-.8,14.91,14.91,0,0,0-.25,3.14c-.14,3.59-.26,7.19-.39,10.79,0,.23,0,.46,0,.7Z" transform="translate(-23.57 -23.42)"/><path class="a" d="M33.11,35.54a3.33,3.33,0,0,1,.6-.12h3.07a.58.58,0,0,1,.61.43c.31.82.63,1.64,1,2.46.07.17.16.33.24.49h.16l1.09-3.37c1.34,0,2.66,0,4.07,0-.09.32-.12.5-.19.67q-1.92,5-3.85,10.07c-.26.67-.53.88-1.15.89a1.1,1.1,0,0,1-1.23-.84q-2.08-5-4.16-10C33.24,36,33.2,35.79,33.11,35.54Z" transform="translate(-23.57 -23.42)"/><path class="a" d="M32.52,34.34c0-2.61,2.95-5.08,6-5.06s5.87,2.52,5.86,5.06Z" transform="translate(-23.57 -23.42)"/></svg>