<svg id="Icon_comments_alt2_Image" data-name="Icon_comments_alt2 Image" xmlns="http://www.w3.org/2000/svg" viewBox="0 0 58.38 63.61"><defs><style>.cls-1{fill:#97689b;}</style></defs><title>Icon_comments_alt2</title><path class="cls-1" d="M11,71l4.27-17a30.92,30.92,0,0,1-4.82-10.2A29.18,29.18,0,1,1,43.81,65.32a29.91,29.91,0,0,1-9.9,0,4.37,4.37,0,0,0-1.76.13C25.43,67.24,18.71,69,12,70.8,11.74,70.87,11.48,70.92,11,71ZM64.32,36.6A25.56,25.56,0,1,0,38.76,62.16,25.61,25.61,0,0,0,64.32,36.6ZM28,63.55,17.61,56.73C16.74,60.2,15.91,63.5,15,67Z" transform="translate(-9.59 -7.41)"/></svg>