<svg id="Icon_share_alt_Image" data-name="Icon_share_alt Image" xmlns="http://www.w3.org/2000/svg" viewBox="0 0 75.12 75.12"><defs><style>.cls-1{fill:#3d3d3d;}</style></defs><title>Icon_share_alt</title><path class="cls-1" d="M1.2,38.53A37.56,37.56,0,1,1,38.53,76.08,37.56,37.56,0,0,1,1.2,38.53Zm44.32,8.12q3.65-7.23,7.24-14.4c5,.59,8.66-1.44,10-5.49a8.2,8.2,0,0,0-14.23-7.58c-2.69,3.38-2.28,7.48,1.22,11.55C47.32,35.5,44.9,40.3,42.55,45H38.13L30.88,30.53c3.94-4,3.11-8.68,1.12-11.24a8.27,8.27,0,0,0-10-2.42,8.16,8.16,0,0,0-4.45,9.3c1,4.33,4.19,6.2,10.4,6.08L35.08,46.5c-3.88,4.36-4.08,9-.63,12.33A8.17,8.17,0,0,0,45.74,59C49.3,55.75,49.26,51.16,45.52,46.65Z" transform="translate(-1.2 -0.96)"/></svg>