<svg id="Icon_orders_alt_Image" data-name="Icon_orders_alt Image" xmlns="http://www.w3.org/2000/svg" viewBox="0 0 75.12 75.12"><defs><style>.cls-1{fill:#3d3d3d;}</style></defs><title>Icon_orders_alt</title><path class="cls-1" d="M76.32,38.48A37.56,37.56,0,1,1,38.72,1,37.56,37.56,0,0,1,76.32,38.48ZM49.72,24.05h7.07V59.69H21.45V24h6.77V21.12c-2.78,0-5.46,0-8.14,0-1.11,0-1.59.57-1.59,1.79q0,18.95,0,37.9c0,1.3.51,1.8,1.83,1.8H58c1.25,0,1.73-.51,1.78-1.74,0-.2,0-.4,0-.6V23.46c0-2-.34-2.34-2.39-2.34H50.9c-.39,0-.77,0-1.18.05Zm-2.07.39V18.22H44.16a5,5,0,0,0-5.11-3.79,5.11,5.11,0,0,0-5.25,3.85H30.35v6.16ZM28.4,32.7V35H50.56V32.7Zm22.18,9.14H28.43v2.24H50.58ZM28.36,53.42h22.2v-2.2H28.36Z" transform="translate(-1.2 -0.96)"/></svg>