<svg id="Icon_favorites_alt_Image" data-name="Icon_favorites_alt Image" xmlns="http://www.w3.org/2000/svg" viewBox="0 0 75.12 75.12"><defs><style>.cls-1{fill:#3d3d3d;}</style></defs><title>Icon_favorites_alt</title><path class="cls-1" d="M76.32,38.56A37.56,37.56,0,1,1,38.8,1,37.56,37.56,0,0,1,76.32,38.56ZM38.5,60.45c.33-.38.6-.67.85-1Q49.61,47.28,59.88,35.06a10.27,10.27,0,0,0,0-13.42,13.66,13.66,0,0,0-20.36-.11c-.3.34-.6.68-.93,1.07l-.55-.68a13.78,13.78,0,0,0-18.69-2.21c-5.12,3.83-6,10.41-2,15.32,5.05,6.15,10.16,12.24,15.24,18.36Z" transform="translate(-1.2 -0.96)"/></svg>