<svg id="Icon_filter2_Image" data-name="Icon_filter2 Image" xmlns="http://www.w3.org/2000/svg" viewBox="0 0 70.14 69.12"><defs><style>.cls-1{fill:#3d3d3d;}</style></defs><title>Icon_filter</title><path class="cls-1" d="M38.74,4.32H71.5c1.91,0,2.59.61,2.09,2.46a28,28,0,0,1-2.52,6.56c-7.58,13.2-15.28,26.34-23,39.48A7.31,7.31,0,0,0,47,56.76c.07,4.88,0,9.76,0,14.64,0,1.68-.36,2-2,2H32.16c-1.52,0-1.92-.4-1.92-1.92,0-5.24,0-10.48,0-15.72a5.05,5.05,0,0,0-.62-2.35C22.09,40.57,14.5,27.73,7.05,14.82A69.26,69.26,0,0,1,3.78,7.4a3.14,3.14,0,0,1-.17-1.06c-.07-1.6.33-2,1.9-2Z" transform="translate(-3.61 -4.32)"/></svg>