<svg xmlns="http://www.w3.org/2000/svg" width="707.68" height="130.54" viewBox="0 0 707.68 130.54"><title>Logo_title</title><path d="M134.81,81.7a65.22,65.22,0,1,1-.24-24.4,33.92,33.92,0,0,1,.77,5.21h-13.8c-1.91,0-1.88,0-2.23-1.85a48.63,48.63,0,0,0-18.09-29.6,49.58,49.58,0,0,0-41-9.44,48.14,48.14,0,0,0-27.7,16.89c-10,12.29-13.44,26.37-10.31,41.88A47.25,47.25,0,0,0,39.1,108.22c12.3,10,26.37,13.43,41.88,10.33a47.77,47.77,0,0,0,25.69-14.44,48.49,48.49,0,0,0,11.89-21.33c.23-.86.63-1.09,1.49-1.08C125,81.74,129.89,81.71,134.81,81.7Z" transform="translate(-5.23 -4.93)" fill="#3d3d3d"/><path d="M360.52,106.56a15.4,15.4,0,0,1-11.37,6.56c-9.49.87-16.69-4.07-19-13.34-1.91-7.74-1.61-15.42,2.47-22.54,5-8.73,14.14-10.5,21.34-8.48a11.77,11.77,0,0,1,6.54,5V72.48c0-7.64,0-15.27,0-22.91,0-1,.24-1.21,1.19-1.19,3.68,0,7.36,0,11,0,.83,0,1.18.11,1.18,1.08q-.06,30.84,0,61.68c0,.87-.28,1-1.09,1q-5.58-.06-11.16,0c-.86,0-1.21-.16-1.15-1.11C360.58,109.57,360.52,108.06,360.52,106.56Zm.2-17c0-.67.07-1.75,0-2.82a9.07,9.07,0,0,0-3.1-6.4,8.46,8.46,0,0,0-13.43,3.23,18.79,18.79,0,0,0-.44,13.91,7.75,7.75,0,0,0,5.26,5.17,8.44,8.44,0,0,0,10.27-4.42C360.63,95.6,360.88,92.8,360.72,89.52Z" transform="translate(-5.23 -4.93)" fill="#3e3e3e"/><path d="M134.81,81.7c-4.92,0-9.84,0-14.76,0-.86,0-1.26.22-1.49,1.08a48.49,48.49,0,0,1-11.89,21.33A47.77,47.77,0,0,1,81,118.55c-15.51,3.1-29.58-.29-41.88-10.33A47.25,47.25,0,0,1,22.22,80.4c-3.13-15.51.27-29.59,10.31-41.88A49.35,49.35,0,0,1,79.72,21.36a48.07,48.07,0,0,1,21.5,9.71,48.63,48.63,0,0,1,18.09,29.6c.35,1.84.32,1.85,2.23,1.85h13.8a17.84,17.84,0,0,1,.49,4.36,70.7,70.7,0,0,1-.72,13.56C135,80.86,134.91,81.28,134.81,81.7ZM84.72,105h0a4.63,4.63,0,0,1,.59-2q8.59-22.29,17.22-44.56c.58-1.5,1.19-3,1.87-4.7a31.41,31.41,0,0,1,2.8,7.79c.17.76.43,1.07,1.25,1.06q3.94-.07,7.91,0c.89,0,1.11-.26.94-1.12a46.54,46.54,0,0,0-14.61-26.2c-11.17-10.11-24.32-14.11-39.16-12a45.27,45.27,0,0,0-27.9,15c-10,11.14-13.92,24.24-11.78,39a45.7,45.7,0,0,0,15,27.9,46.75,46.75,0,0,0,29.23,12.27A45.18,45.18,0,0,0,85,115.27a47.64,47.64,0,0,0,31.38-32.52c.2-.7.25-1.07-.7-1-2.8.06-5.6,0-8.4,0a1,1,0,0,0-1.11.8,37.4,37.4,0,0,1-16.9,20.4A16.14,16.14,0,0,1,84.72,105Z" transform="translate(-5.23 -4.93)" fill="#946598"/><path d="M143.08,35.79c3.48,0,6.95,0,10.43,0,.83,0,1,.44,1.16,1,2,6.59,4.09,13.17,6.13,19.75q3.87,12.51,7.75,25c.06.22.17.43.35.87.79-2.42,1.53-4.65,2.25-6.87q6.38-19.43,12.73-38.85c.19-.57.38-1,1.13-.95,3.51.06,7,0,10.54,0a4.17,4.17,0,0,1-.12.94c-1,3.25-2.05,6.51-3.09,9.75q-1.87,5.77-3.76,11.55c-1.25,3.85-2.47,7.72-3.72,11.57-1.12,3.44-2.26,6.86-3.38,10.29-.79,2.41-1.57,4.82-2.36,7.23-1,2.95-2,5.88-2.92,8.83-1.11,3.44-2.24,6.87-3.28,10.33a45.42,45.42,0,0,0-1.81,5.92h-3.82c.1-1-.5-1.83-.77-2.73-1-3.21-2-6.39-3-9.57-1.26-3.89-2.59-7.77-3.85-11.66s-2.36-7.59-3.59-11.37c-1.32-4-2.74-8.05-4.05-12.1-1.23-3.77-2.37-7.58-3.58-11.36-1.5-4.65-3.08-9.27-4.54-13.94C143.52,38.28,142.73,37.15,143.08,35.79Z" transform="translate(-5.23 -4.93)" fill="#3e3e3e"/><path d="M557.63,81.7c0-3.25,0-6.28,0-9.32,0-.83.53-1,1.06-1.21a43.73,43.73,0,0,1,11.58-2.9,28.55,28.55,0,0,1,10,.42c6.8,1.58,10.83,6,11.83,12.94a35.21,35.21,0,0,1,.36,5c0,8.08,0,16.15,0,24.23,0,1.08-.29,1.33-1.33,1.31-3.44-.07-6.88,0-10.32,0-.78,0-1-.2-1-1,.06-1.66,0-3.32,0-5.28l-.7,1a15.2,15.2,0,0,1-19,5c-4.95-2.45-6.86-6.72-6.74-12,.17-7.7,4.4-12.35,12.63-13.8,4.09-.72,8.22-1.17,12.34-1.72,1.59-.22,1.65-.26,1.42-1.83-.49-3.28-2.94-5.24-6.62-5.36A25.7,25.7,0,0,0,558.82,81Zm22.25,12.5a13.81,13.81,0,0,1,0-1.44c.09-.84-.22-1-1-.84-1.57.28-3.17.41-4.75.62a15.87,15.87,0,0,0-5.78,1.4,5.19,5.19,0,0,0-2.63,5.35,5,5,0,0,0,3.86,4.24,7.92,7.92,0,0,0,5.6-.6C578.72,101.1,580,98,579.88,94.2Z" transform="translate(-5.23 -4.93)" fill="#3d3d3d"/><path d="M545,100.42c0,3,0,5.83,0,8.67a1.32,1.32,0,0,1-.95,1.41,33.77,33.77,0,0,1-13.52,2.7,29.83,29.83,0,0,1-9-1c-6.36-1.86-10.74-5.86-12.75-12.2a28,28,0,0,1,.36-18.57c3.2-8.7,11.47-13.82,21.26-13.37,7,.32,12.57,3.07,15.94,9.48a24.22,24.22,0,0,1,2.42,11c0,1.6,0,3.2,0,4.79.05.93-.26,1.11-1.14,1.11-8.55,0-17.11,0-25.66,0-1.23,0-1.34.39-1.16,1.41.79,4.41,3.87,7.18,8.69,7.74a23.6,23.6,0,0,0,14.79-2.82C544.48,100.64,544.66,100.58,545,100.42ZM528.48,86.24h5.16c3,0,3,0,2.49-3-.5-2.75-1.72-5-4.63-5.83a7.34,7.34,0,0,0-8,2.18,12,12,0,0,0-2.79,5.73c-.16.79,0,1,.78,1C523.84,86.21,526.16,86.24,528.48,86.24Z" transform="translate(-5.23 -4.93)" fill="#3d3d3d"/><path d="M671,100.48c0,3,0,6,0,8.94,0,.72-.48.85-.93,1.06a33.2,33.2,0,0,1-13.51,2.72,29.83,29.83,0,0,1-9-1c-6.36-1.85-10.75-5.85-12.77-12.18a28,28,0,0,1,.34-18.58c3.18-8.69,11.46-13.84,21.24-13.4,7,.32,12.58,3,16,9.47a24.15,24.15,0,0,1,2.44,11.12c0,1.52-.06,3,0,4.55.06,1-.21,1.27-1.23,1.27-8.11,0-16.23,0-24.34,0a11.59,11.59,0,0,1-1.56,0c-.87-.12-.95.29-.87,1a8.79,8.79,0,0,0,7.41,7.87A23.25,23.25,0,0,0,670,100.93l.64-.34A2.11,2.11,0,0,1,671,100.48ZM654.52,86.24h5c3.18,0,3.2,0,2.56-3.17-.55-2.69-1.78-4.88-4.65-5.67a7.31,7.31,0,0,0-7.86,2.12,11.93,11.93,0,0,0-2.81,5.59c-.2.86-.12,1.19.89,1.15C650,86.18,652.24,86.24,654.52,86.24Z" transform="translate(-5.23 -4.93)" fill="#3d3d3d"/><path d="M465.51,52.46c-2.17,2.18-4.36,4.35-6.5,6.56-.51.52-.77.59-1.38,0a20.24,20.24,0,0,0-27.46-.13c-6,5.47-8.22,12.46-6.13,20.33,2.13,8,7.49,13.18,15.7,14.89,6.71,1.41,12.72-.39,17.87-4.92.58-.51.83-.58,1.39,0,1.81,1.92,3.7,3.76,5.55,5.64.31.31.57.66.86,1a4,4,0,0,0-1.18.8,28.33,28.33,0,0,1-11.26,6.5A30.36,30.36,0,0,1,422.9,96a29.16,29.16,0,0,1-7.71-12.29,29.71,29.71,0,0,1-1.44-7.24,31.13,31.13,0,0,1,2.7-14.77,28,28,0,0,1,6.37-9,30.25,30.25,0,0,1,10.83-6.79,32.67,32.67,0,0,1,8.84-1.82A29.21,29.21,0,0,1,454.42,46a30.43,30.43,0,0,1,9.82,5.93A1.65,1.65,0,0,0,465.51,52.46Z" transform="translate(-5.23 -4.93)" fill="#3e3e3e"/><path d="M225.31,100.28A31.3,31.3,0,0,0,232,103.2a19.54,19.54,0,0,0,10.4.38,6,6,0,0,0,1.75-.77,2.9,2.9,0,0,0,.21-4.86,14.82,14.82,0,0,0-5.08-2.31,52,52,0,0,1-7.77-3.11c-8.41-4.18-8.15-16.69-.54-21.24a24.86,24.86,0,0,1,12.23-3.24,39.56,39.56,0,0,1,11.61,1.45c.49.12,1,.16,1,.93,0,3.15,0,6.3,0,9.62a26.26,26.26,0,0,0-5.86-2.27A18.68,18.68,0,0,0,242,77.4a5.55,5.55,0,0,0-2.79,1.28,2.74,2.74,0,0,0-.17,4,9.59,9.59,0,0,0,4.24,2.37c2.71.94,5.41,1.89,8,3.07,9.61,4.33,8.67,17,1.18,21.63a24.15,24.15,0,0,1-10.77,3.27,39.74,39.74,0,0,1-15.51-1.66,1.23,1.23,0,0,1-1-1.42c.06-2.84,0-5.68,0-8.52C225.24,101.13,225.28,100.78,225.31,100.28Z" transform="translate(-5.23 -4.93)" fill="#3d3d3d"/><path d="M710.28,80.09a22.7,22.7,0,0,0-8.74-2.82,13.53,13.53,0,0,0-5.93.4A3.78,3.78,0,0,0,693,79.9a3,3,0,0,0,1.32,3.45,13.18,13.18,0,0,0,4.1,1.93,69.09,69.09,0,0,1,7.8,3c9.18,4.31,8.24,16.45,1.55,21a23.08,23.08,0,0,1-11.48,3.73,40.12,40.12,0,0,1-15.39-1.64,1.3,1.3,0,0,1-1.09-1.51c.06-3.15,0-6.3,0-9.67l1.8.94a22.44,22.44,0,0,0,14.34,2.62,6.85,6.85,0,0,0,2.68-1,2.89,2.89,0,0,0,.21-4.92,14.69,14.69,0,0,0-5-2.26,50.94,50.94,0,0,1-7.77-3.1c-8.45-4.14-8.22-16.65-.64-21.23a24.63,24.63,0,0,1,12.11-3.27,39.5,39.5,0,0,1,11.84,1.47c.39.1.91.07.91.73C710.28,73.47,710.28,76.69,710.28,80.09Z" transform="translate(-5.23 -4.93)" fill="#3d3d3d"/><path d="M629,101.89c0,3.17,0,6.24,0,9.3,0,.74-.56.82-1,1a23.92,23.92,0,0,1-9.09,1.07,15,15,0,0,1-6.9-1.73c-3.69-2.06-5.21-5.46-5.75-9.43A78.56,78.56,0,0,1,606,92q-.06-6,0-12c0-.77-.17-1-1-1-1.68.07-3.36,0-5,0-.81,0-1-.25-1-1,.05-2.64,0-5.28,0-7.92,0-.71.14-1,.92-.95,1.71.06,3.43,0,5.15,0,.76,0,.94-.23.93-1,0-2.52,0-5,0-7.56,0-.61.15-.91.78-1.08q5.82-1.62,11.62-3.32c.77-.23,1,0,1,.74,0,3.67,0,7.35,0,11,0,.89.22,1.16,1.13,1.14,2.52-.06,5,0,7.55,0,.76,0,1,.16,1,1q-.07,4,0,7.92c0,.83-.28,1-1,1-2.6,0-5.2,0-7.8,0-.55,0-.88,0-.88.75.05,5.92-.09,11.84.13,17.75.18,4.64,3.39,6.58,7.81,5C627.81,102.39,628.35,102.15,629,101.89Z" transform="translate(-5.23 -4.93)" fill="#3d3d3d"/><path d="M298.6,81.37a15.87,15.87,0,0,0-6.7-2.89,15.66,15.66,0,0,0-7.23.46C280,80.45,277.15,84.51,277,89.7a16,16,0,0,0,.7,5.92c1.5,4.28,4.58,6.59,9,7.22a16.63,16.63,0,0,0,10.8-2.27l1.14-.65c0,3.5,0,6.84,0,10.19,0,.58-.37.72-.77.92a21.83,21.83,0,0,1-8,2c-5.32.46-10.58.31-15.43-2.28a19.79,19.79,0,0,1-10.93-16.64,26,26,0,0,1,2.09-13.58c3.21-6.82,8.77-10.62,16-12A32.63,32.63,0,0,1,296,69c2.58.68,2.57.74,2.57,3.35Z" transform="translate(-5.23 -4.93)" fill="#3d3d3d"/><path d="M489.56,76.7a19.54,19.54,0,0,1,3.56-5.31c2.95-2.8,6.49-3.39,10.35-2.77.61.1.83.4.83,1,0,3.52,0,7,0,10.55,0,.69-.07,1-.84.59a10.25,10.25,0,0,0-5.26-.9c-4.65.43-7.47,3.24-8.34,8.14a19,19,0,0,0-.29,3.45c0,6.48,0,13,0,19.44,0,1.1-.31,1.3-1.33,1.29-3.68-.07-7.36-.06-11,0-.86,0-1.05-.25-1.05-1.07q0-20.46,0-40.91c0-.85.24-1.07,1.07-1.06,3.76,0,7.52,0,11.28,0,.85,0,1.07.25,1.05,1.08C489.52,72.4,489.56,74.55,489.56,76.7Z" transform="translate(-5.23 -4.93)" fill="#3e3e3e"/><path d="M467.54,98c.85.84,1.67,1.71,2.57,2.51.55.48.41.72-.06,1.16a36.26,36.26,0,0,1-21.33,10.15c-10.14,1.23-19.52-.91-27.68-7.13-10-7.65-15.19-17.9-15.19-30.57a37.5,37.5,0,0,1,32.54-37.49c12.14-1.71,22.71,1.84,31.7,10.16.4.38.6.67.07,1.12a34.73,34.73,0,0,1-2.87,2.69,1.4,1.4,0,0,0-.61-1.23c-.68-.55-1.34-1.13-2-1.67a35,35,0,0,0-12.9-6.18,17.32,17.32,0,0,0-4-.91c-3.17,0-6.3-.29-9.55.45a39.15,39.15,0,0,0-13.63,5.68,32.11,32.11,0,0,0-9.29,9.81,30.92,30.92,0,0,0-4.89,15c-.07,1.59,0,3.2,0,4.8a29.93,29.93,0,0,0,4.31,14.85,32.85,32.85,0,0,0,10.51,11.26,34.9,34.9,0,0,0,11.7,5c3.06.68,6.18.5,9.29.51a25.47,25.47,0,0,0,7.85-1.34,34,34,0,0,0,11.52-6.3C466.34,99.62,467.41,99.15,467.54,98Z" transform="translate(-5.23 -4.93)" fill="#3e3e3e"/><path d="M216.92,90.84c0,6.72,0,13.44,0,20.16,0,1-.29,1.24-1.27,1.22-3.67-.06-7.35,0-11,0-.77,0-1.12-.1-1.11-1q0-20.52,0-41c0-.8.24-1,1-1,3.75,0,7.51,0,11.27,0,.93,0,1.12.27,1.11,1.14C216.91,77.16,216.92,84,216.92,90.84Z" transform="translate(-5.23 -4.93)" fill="#3e3e3e"/><path d="M320.6,90.77c0,6.76,0,13.51,0,20.27,0,.95-.24,1.2-1.18,1.18q-5.58-.07-11.16,0c-.84,0-1.06-.21-1.06-1.06q0-20.44,0-40.91c0-.84.22-1.08,1.06-1.07q5.64.06,11.28,0c.84,0,1.06.23,1.06,1.07C320.59,77.09,320.6,83.93,320.6,90.77Z" transform="translate(-5.23 -4.93)" fill="#3e3e3e"/><path d="M467.54,98c-.13,1.2-1.2,1.67-2,2.29a34,34,0,0,1-11.52,6.3,25.47,25.47,0,0,1-7.85,1.34c-3.11,0-6.23.17-9.29-.51a34.9,34.9,0,0,1-11.7-5,32.85,32.85,0,0,1-10.51-11.26,29.93,29.93,0,0,1-4.31-14.85c0-1.6,0-3.21,0-4.8a30.92,30.92,0,0,1,4.89-15,32.11,32.11,0,0,1,9.29-9.81A39.15,39.15,0,0,1,438.23,41c3.25-.74,6.38-.44,9.55-.45a17.32,17.32,0,0,1,4,.91,35,35,0,0,1,12.9,6.18c.69.54,1.35,1.12,2,1.67a1.4,1.4,0,0,1,.61,1.23v0l-.26.26,0,0-.26.26,0,0-.26.26,0,0-.26.26,0,0-.26.39a.81.81,0,0,1-.57.6,1.65,1.65,0,0,1-1.27-.53A30.43,30.43,0,0,0,454.42,46a29.21,29.21,0,0,0-11.93-1.91,32.67,32.67,0,0,0-8.84,1.82,30.25,30.25,0,0,0-10.83,6.79,28,28,0,0,0-6.37,9,31.13,31.13,0,0,0-2.7,14.77,29.71,29.71,0,0,0,1.44,7.24A29.16,29.16,0,0,0,422.9,96,30.36,30.36,0,0,0,453,103.17a28.33,28.33,0,0,0,11.26-6.5,4,4,0,0,1,1.18-.8A7.28,7.28,0,0,1,467.54,98Z" transform="translate(-5.23 -4.93)" fill="#906494"/><path d="M143.08,35.79c-.35,1.36.44,2.49.81,3.68,1.46,4.67,3,9.29,4.54,13.94,1.21,3.78,2.35,7.59,3.58,11.36,1.31,4,2.73,8.06,4.05,12.1,1.23,3.78,2.37,7.59,3.59,11.37S162.24,96,163.5,99.9c1,3.18,2.06,6.36,3,9.57.27.9.87,1.72.77,2.73a5.89,5.89,0,0,1-3.62,0c.11-.82-.44-1.43-.66-2.14-1-3.11-1.93-6.23-2.92-9.33-1.1-3.44-2.24-6.86-3.36-10.3-1.24-3.77-2.45-7.55-3.71-11.31-1-3.05-1.92-6.14-3-9.18-1.12-3.22-2-6.52-3.06-9.76-1.26-3.9-2.61-7.76-3.89-11.64-.83-2.53-1.61-5.06-2.43-7.59-.55-1.72-1.13-3.44-1.69-5.16A14.58,14.58,0,0,1,143.08,35.79Z" transform="translate(-5.23 -4.93)" fill="#906494"/><path d="M171.11,112.2a45.42,45.42,0,0,1,1.81-5.92c1-3.46,2.17-6.89,3.28-10.33,1-3,2-5.88,2.92-8.83.79-2.41,1.57-4.82,2.36-7.23,1.12-3.43,2.26-6.85,3.38-10.29,1.25-3.85,2.47-7.72,3.72-11.57s2.51-7.7,3.76-11.55c1-3.24,2.07-6.5,3.09-9.75a4.17,4.17,0,0,0,.12-.94,14.65,14.65,0,0,1,4.13,0c0,1.11-.89,1.81-1.19,2.83-1.17,4-2.55,8-3.83,11.92-1,3-1.87,6-2.85,9-.83,2.56-1.75,5.1-2.59,7.67-1.46,4.54-2.81,9.12-4.36,13.63-1.31,3.82-2.53,7.68-3.79,11.52-1.4,4.27-2.8,8.55-4.14,12.83l-2.19,7A6,6,0,0,1,171.11,112.2Z" transform="translate(-5.23 -4.93)" fill="#906494"/><path d="M139,35.79c.56,1.72,1.14,3.44,1.69,5.16.82,2.53,1.6,5.06,2.43,7.59,1.28,3.88,2.63,7.74,3.89,11.64,1.06,3.24,1.94,6.54,3.06,9.76,1.07,3,2,6.13,3,9.18,1.26,3.76,2.47,7.54,3.71,11.31,1.12,3.44,2.26,6.86,3.36,10.3,1,3.1,1.95,6.22,2.92,9.33.22.71.77,1.32.66,2.14-1.1-.08-2.5.46-3.23-.21s-.78-2-1.12-3.1q-8.9-27.73-17.77-55.47c-1.78-5.54-3.54-11.08-5.34-16.61-.25-.77-.2-1.13.71-1.05C137.6,35.81,138.28,35.78,139,35.79Z" transform="translate(-5.23 -4.93)" fill="#3e3e3e"/><path d="M174.74,112.21l2.19-7c1.34-4.28,2.74-8.56,4.14-12.83,1.26-3.84,2.48-7.7,3.79-11.52,1.55-4.51,2.9-9.09,4.36-13.63.84-2.57,1.76-5.11,2.59-7.67,1-3,1.89-6,2.85-9,1.28-4,2.66-7.91,3.83-11.92.3-1,1.21-1.72,1.19-2.83,3.13-.12,3.13-.11,2.15,2.8q-12.27,36.36-24.53,72.72c-.22.66-.51,1-1.25.9A9.54,9.54,0,0,0,174.74,112.21Z" transform="translate(-5.23 -4.93)" fill="#3e3e3e"/><path d="M218,55.53a6.39,6.39,0,0,1-4,6.15,8.7,8.7,0,0,1-9.46-1.54,6.58,6.58,0,0,1,2.11-10.74,9.13,9.13,0,0,1,7.35,0A6.19,6.19,0,0,1,218,55.53Z" transform="translate(-5.23 -4.93)" fill="#3e3e3e"/><path d="M313.76,48.69c3.35.05,6,1,7.35,4.08A6.66,6.66,0,0,1,316.63,62c-3.06.79-6,.51-8.36-1.84a6.37,6.37,0,0,1-1.63-6.84c.83-2.63,2.84-4,5.43-4.5A13.73,13.73,0,0,1,313.76,48.69Z" transform="translate(-5.23 -4.93)" fill="#3e3e3e"/><path d="M467,50.78l.26-.26Z" transform="translate(-5.23 -4.93)" fill="#3e3e3e"/><path d="M466.8,51l.26-.26Z" transform="translate(-5.23 -4.93)" fill="#3e3e3e"/><path d="M466.56,51.26l.26-.26Z" transform="translate(-5.23 -4.93)" fill="#3e3e3e"/><path d="M466.32,51.5l.26-.26Z" transform="translate(-5.23 -4.93)" fill="#3e3e3e"/><path d="M466.08,51.86l.26-.39Z" transform="translate(-5.23 -4.93)" fill="#3e3e3e"/><path d="M84.72,105a16.14,16.14,0,0,0,4.54-2.09,37.4,37.4,0,0,0,16.9-20.4,1,1,0,0,1,1.11-.8c2.8,0,5.6.05,8.4,0,1,0,.9.35.7,1A47.64,47.64,0,0,1,85,115.27a45.18,45.18,0,0,1-16.88,2.16,46.75,46.75,0,0,1-29.23-12.27,45.7,45.7,0,0,1-15-27.9c-2.14-14.75,1.8-27.85,11.78-39a45.27,45.27,0,0,1,27.9-15c14.84-2.13,28,1.87,39.16,12a46.54,46.54,0,0,1,14.61,26.2c.17.86,0,1.13-.94,1.12q-4-.07-7.91,0c-.82,0-1.08-.3-1.25-1.06a31.41,31.41,0,0,0-2.8-7.79c-.68,1.71-1.29,3.2-1.87,4.7Q93.92,80.66,85.31,103a4.63,4.63,0,0,0-.59,2l-.1.09h.06A.2.2,0,0,0,84.72,105ZM92.9,40.18l.06-.31A37.45,37.45,0,0,0,64.46,33a34.76,34.76,0,0,0-16.27,7c2,.12,4,.15,5.92.11a1.19,1.19,0,0,1,1.38.94c1,3,2.08,5.87,3.12,8.8q5.28,15,10.57,29.91a5.63,5.63,0,0,0,1,2.19c1.17-3.11,2.3-6.09,3.42-9.08Q79.56,57,85.5,41.08a1.19,1.19,0,0,1,1.32-.91C88.85,40.21,90.87,40.18,92.9,40.18ZM55,104.46c-6.15-17-12.23-33.71-18.34-50.57C27.69,71.64,35,95.49,55,104.46ZM101.58,49c-.1.23-.21.44-.3.66q-10.71,27.82-21.4,55.65c-.15.41-.85,1-.14,1.3a1.55,1.55,0,0,0,1.86-.71,2.17,2.17,0,0,0,.19-.44Q92,79,102.28,52.53A2.77,2.77,0,0,0,101.58,49ZM60.17,106.32a1.46,1.46,0,0,0-.21-1Q58,99.88,56,94.49,48,72.56,40,50.65c-.17-.45-.18-1.28-.71-1.21s-.78.85-1,1.39.13.77.26,1.13q5,13.84,10,27.68c2.95,8.14,5.92,16.27,8.82,24.43A2.82,2.82,0,0,0,60.17,106.32Z" transform="translate(-5.23 -4.93)" fill="#3d3d3d"/><path d="M92.9,40.18c-2,0-4.05,0-6.08,0a1.19,1.19,0,0,0-1.32.91Q79.57,57,73.62,72.93c-1.12,3-2.25,6-3.42,9.08a5.63,5.63,0,0,1-1-2.19Q63.87,64.88,58.61,49.91c-1-2.93-2.13-5.85-3.12-8.8a1.19,1.19,0,0,0-1.38-.94c-2,0-3.92,0-5.92-.11a34.76,34.76,0,0,1,16.27-7A37.45,37.45,0,0,1,93,39.87Z" transform="translate(-5.23 -4.93)" fill="#946598"/><path d="M55,104.46c-20-9-27.35-32.82-18.34-50.57C42.81,70.75,48.89,87.5,55,104.46Z" transform="translate(-5.23 -4.93)" fill="#946598"/><path d="M101.58,49a2.77,2.77,0,0,1,.7,3.53Q92,79,81.79,105.46a2.17,2.17,0,0,1-.19.44,1.55,1.55,0,0,1-1.86.71c-.71-.28,0-.89.14-1.3q10.68-27.82,21.4-55.65C101.37,49.44,101.48,49.23,101.58,49Z" transform="translate(-5.23 -4.93)" fill="#946598"/><path d="M60.17,106.32a2.82,2.82,0,0,1-2.79-2.25c-2.9-8.16-5.87-16.29-8.82-24.43q-5-13.83-10-27.68c-.13-.36-.43-.74-.26-1.13s.49-1.32,1-1.39.54.76.71,1.21q8,21.92,16,43.84,2,5.39,3.93,10.79A1.46,1.46,0,0,1,60.17,106.32Z" transform="translate(-5.23 -4.93)" fill="#946598"/><path d="M84.72,105a.2.2,0,0,1,0,.08h-.06l.1-.09Z" transform="translate(-5.23 -4.93)" fill="#946598"/></svg>