<svg xmlns="http://www.w3.org/2000/svg" width="130.65" height="130.53" viewBox="0 0 130.65 130.53"><defs><style>.a{fill:#3d3d3d;}.b{fill:#946598;}.c{fill:#956599;}.d{fill:#936497;}</style></defs><title>Logo_symbol</title><path class="a" d="M134.8,81.7a65.28,65.28,0,0,1-128,2.58c-8-35.15,14.9-70.6,50.27-77.95a65.29,65.29,0,0,1,77.49,51c.35,1.72.53,3.47.78,5.21H119.71c-2.43-13.9-9.23-25-20.72-33.06a48,48,0,0,0-38.18-7.93,49.23,49.23,0,0,0-39.61,46c-1.11,24.81,14.91,45.54,39.12,51a47.23,47.23,0,0,0,32.16-4c13.77-6.88,22.42-18,26.48-32.86Z" transform="translate(-5.22 -4.93)"/><path class="b" d="M134.8,81.7H119c-4.06,14.87-12.71,26-26.48,32.86a47.23,47.23,0,0,1-32.16,4c-24.21-5.44-40.23-26.17-39.12-51a49.23,49.23,0,0,1,39.61-46A48,48,0,0,1,99,29.45c11.49,8,18.29,19.16,20.72,33.06h15.63c.17,1.49.44,3,.48,4.48a68.67,68.67,0,0,1-.71,13.44C135,80.86,134.91,81.28,134.8,81.7ZM84.72,105h0c.19-.68.33-1.39.58-2q8.61-22.29,17.23-44.56c.58-1.5,1.19-3,1.78-4.48l.43,0q1.44,4.28,2.89,8.55h9.66c-2-17.1-17.7-38.11-44-39.69a47.4,47.4,0,0,0-5.44,94.64c23.9,1.58,43.9-15.2,48.63-35.6h-10l-.2.5a37.57,37.57,0,0,1-17,20.61A49,49,0,0,1,84.72,105Z" transform="translate(-5.22 -4.93)"/><path class="a" d="M84.72,105a49,49,0,0,0,4.53-2.1,37.57,37.57,0,0,0,17-20.61l.2-.5h10c-4.73,20.4-24.73,37.18-48.63,35.6a47.4,47.4,0,0,1,5.44-94.64c26.28,1.58,42,22.59,44,39.69h-9.66q-1.45-4.27-2.89-8.55l-.43,0c-.59,1.49-1.2,3-1.78,4.48Q93.92,80.66,85.3,103c-.25.66-.39,1.37-.58,2l0,0Zm8.19-64.84a36.51,36.51,0,0,0-44.7,0h6.94L69.94,81.92h.3q7.82-20.86,15.63-41.76ZM55,104.44,36.69,53.87C27.52,72.16,35.47,95.79,55,104.44ZM101.55,49,79.27,106.8l2.18-.5c.26-.68.49-1.32.73-1.94q10-26,20.13-51.92A2.8,2.8,0,0,0,101.55,49Zm-63.39,2,19.89,54.84,2.35.7c-7-19.25-14-38.21-21-57.45Z" transform="translate(-5.22 -4.93)"/><path class="c" d="M92.91,40.16h-7Q78,61.07,70.24,81.92h-.3L55.15,40.18H48.21a36.51,36.51,0,0,1,44.7,0Z" transform="translate(-5.22 -4.93)"/><path class="c" d="M55,104.44C35.47,95.79,27.52,72.16,36.69,53.87Z" transform="translate(-5.22 -4.93)"/><path class="d" d="M101.55,49a2.8,2.8,0,0,1,.76,3.49Q92.19,78.38,82.18,104.36c-.24.62-.47,1.26-.73,1.94l-2.18.5Z" transform="translate(-5.22 -4.93)"/><path class="d" d="M38.16,50.92,39.42,49c7,19.24,13.95,38.2,21,57.45l-2.35-.7Z" transform="translate(-5.22 -4.93)"/><path class="b" d="M84.72,105l0,0,0,0Z" transform="translate(-5.22 -4.93)"/></svg>